HIERARCHY
ROOT Root
{
	OFFSET 0.00000 0.00000 0.00000
	CHANNELS 6 Xposition Yposition Zposition Zrotation Xrotation Yrotation
	JOINT Hip
	{
		OFFSET 0 0 0	
		CHANNELS 3 Zrotation Xrotation Yrotation
		JOINT Tummy
		{
			OFFSET 0 0.04 0	
			CHANNELS 3 Zrotation Xrotation Yrotation
			JOINT ChestBottom
			{
				OFFSET 0 0.194 0	
				CHANNELS 3 Zrotation Xrotation Yrotation
				JOINT ChestTop
				{
					OFFSET 0 0.166 0	
					CHANNELS 3 Zrotation Xrotation Yrotation
					JOINT LeftCollar
					{
						OFFSET 0 0.1 0	
						CHANNELS 3 Zrotation Xrotation Yrotation
						JOINT LeftUpperArm
						{
							OFFSET 0.156 -0.02 0.03	
							CHANNELS 3 Zrotation Xrotation Yrotation
							JOINT LeftForeArm
							{
								OFFSET 0.035 -0.27 -0.01	
								CHANNELS 3 Zrotation Xrotation Yrotation
								JOINT LeftHand
								{
									OFFSET 0.01 -0.27 0.01	
									CHANNELS 3 Zrotation Xrotation Yrotation
									End Site
									{
										OFFSET 0 -0.15 0
									}
								}
							}
						}
					}
					JOINT RightCollar
					{
						OFFSET 0 0.1 0	
						CHANNELS 3 Zrotation Xrotation Yrotation
						JOINT RightUpperArm
						{
							OFFSET -0.156 -0.02 0.03	
							CHANNELS 3 Zrotation Xrotation Yrotation
							JOINT RightForeArm
							{
								OFFSET -0.035 -0.27 -0.01	
								CHANNELS 3 Zrotation Xrotation Yrotation
								JOINT RightHand
								{
									OFFSET -0.01 -0.27 0.01	
									CHANNELS 3 Zrotation Xrotation Yrotation
									End Site
									{
										OFFSET 0 -0.15 0
									}
								}
							}
						}
					}
					JOINT Neck
					{
						OFFSET 0 0.1 0	
						CHANNELS 3 Zrotation Xrotation Yrotation
						JOINT Head
						{
							OFFSET 0 0.127 0.03	
							CHANNELS 3 Zrotation Xrotation Yrotation
							End Site
							{
								OFFSET 0 0.127 0.03
							}
						}
					}
				}
			}
		}
	}
	JOINT LeftHip
	{
		OFFSET 0 0 0	
		CHANNELS 3 Zrotation Xrotation Yrotation
		JOINT LeftThigh
		{
			OFFSET 0.088 -0.06 0	
			CHANNELS 3 Zrotation Xrotation Yrotation
			JOINT LeftLowerLeg
			{
				OFFSET 0 -0.39 0.02	
				CHANNELS 3 Zrotation Xrotation Yrotation
				JOINT LeftFootTop
				{
					OFFSET 0 -0.43 -0.02	
					CHANNELS 3 Zrotation Xrotation Yrotation
					JOINT LeftFootFront
					{
						OFFSET 0 -0.07 0.085	
						CHANNELS 3 Zrotation Xrotation Yrotation
						End Site
						{
							OFFSET 0 -0.005 0.09
						}
					}
				}
				JOINT LeftHeel
				{
					OFFSET 0 -0.43 -0.02	
					CHANNELS 3 Zrotation Xrotation Yrotation
					End Site
					{
						OFFSET 0 -0.075 -0.05
					}
				}
			}
		}
	}
	JOINT RightHip
	{
		OFFSET 0 0 0	
		CHANNELS 3 Zrotation Xrotation Yrotation
		JOINT RightThigh
		{
			OFFSET -0.088 -0.06 0	
			CHANNELS 3 Zrotation Xrotation Yrotation
			JOINT RightLowerLeg
			{
				OFFSET 0 -0.39 0.02	
				CHANNELS 3 Zrotation Xrotation Yrotation
				JOINT RightFootTop
				{
					OFFSET 0 -0.43 -0.02	
					CHANNELS 3 Zrotation Xrotation Yrotation
					JOINT RightFootFront
					{
						OFFSET 0 -0.07 0.085	
						CHANNELS 3 Zrotation Xrotation Yrotation
						End Site
						{
							OFFSET 0 -0.005 0.09
						}
					}
				}
				JOINT RightHeel
				{
					OFFSET 0 -0.43 -0.02	
					CHANNELS 3 Zrotation Xrotation Yrotation
					End Site
					{
						OFFSET 0 -0.075 -0.05
					}
				}
			}
		}
	}
}
MOTION
Frames: 24
Frame Time: 0.05
0 0.955 0 -0 0 -0 -0 0 -0 -0 0 -0 16.87 -6.9211 47.519 -0 0 -0 -0 0 -0 62.39 -37.916 38.118 -111.09 -84.154 -40.636 -0 0 -0 -0 0 -0 24.122 -27.935 50.43 64.262 -63.746 31.31 -0 0 -0 -0.091458 -8.2195 1.0415 -0.091463 -8.2195 1.0415 -0 0 -0 -0 0 -0 -0 0 -0 -0 0 -0 -0 0 -0 -0 0 -0 -0 0 -0 -0 0 -0 -0 0 -0 -0 0 -0 -0 0 -0 -0 0 -0 
0 0.955 0 -0 0 -0 -0 0 -0 -0 0 -0 16.72 -6.9205 47.383 -0 0 -0 -0 0 -0 63.616 -36.582 37.609 -109.52 -84.469 -39.301 -0 0 -0 -0 0 -0 23.891 -28.122 51.017 65.25 -64.45 31.128 -0 0 -0 -0.11554 -8.3045 1.3757 -0.11554 -8.3045 1.3757 -0 0 -0 -0 0 -0 -0 0 -0 -0 0 -0 -0 0 -0 -0 0 -0 -0 0 -0 -0 0 -0 -0 0 -0 -0 0 -0 -0 0 -0 -0 0 -0 
0 0.955 0 -0 0 -0 -0 0 -0 -0 0 -0 16.04 -6.5319 47.47 -0 0 -0 -0 0 -0 65.43 -35.7 37.521 -110.75 -84.686 -40.02 -0 0 -0 -0 0 -0 23.735 -29.013 51.522 66.265 -65.167 31.211 -0 0 -0 -0.2244 -8.7352 1.5281 -0.2244 -8.7352 1.5281 -0 0 -0 -0 0 -0 -0 0 -0 -0 0 -0 -0 0 -0 -0 0 -0 -0 0 -0 -0 0 -0 -0 0 -0 -0 0 -0 -0 0 -0 -0 0 -0 
0 0.955 0 -0 0 -0 -0 0 -0 -0 0 -0 15.773 -6.5254 47.614 -0 0 -0 -0 0 -0 66.854 -34.794 36.971 -111.52 -84.595 -39.956 -0 0 -0 -0 0 -0 23.681 -29.258 51.182 66.84 -65.584 32.67 -0 0 -0 -0.39245 -8.9425 1.6318 -0.39245 -8.9425 1.6318 -0 0 -0 -0 0 -0 -0 0 -0 -0 0 -0 -0 0 -0 -0 0 -0 -0 0 -0 -0 0 -0 -0 0 -0 -0 0 -0 -0 0 -0 -0 0 -0 
0 0.955 0 -0 0 -0 -0 0 -0 -0 0 -0 16.513 -6.6591 47.587 -0 0 -0 -0 0 -0 67.271 -33.82 36.176 -107.97 -84.053 -35.378 -0 0 -0 -0 0 -0 23.226 -28.562 50.834 66.677 -65.695 34.401 -0 0 -0 -0.89529 -8.78 1.853 -0.89529 -8.78 1.853 -0 0 -0 -0 0 -0 -0 0 -0 -0 0 -0 -0 0 -0 -0 0 -0 -0 0 -0 -0 0 -0 -0 0 -0 -0 0 -0 -0 0 -0 -0 0 -0 
0 0.955 0 -0 0 -0 -0 0 -0 -0 0 -0 16.944 -6.7535 47.759 -0 0 -0 -0 0 -0 67.938 -33.46 35.747 -104.44 -83.347 -30.591 -0 0 -0 -0 0 -0 22.932 -28.13 50.768 66.373 -66.046 36.609 -0 0 -0 -1.3222 -8.5706 2.0195 -1.3222 -8.5706 2.0195 -0 0 -0 -0 0 -0 -0 0 -0 -0 0 -0 -0 0 -0 -0 0 -0 -0 0 -0 -0 0 -0 -0 0 -0 -0 0 -0 -0 0 -0 -0 0 -0 
0 0.955 0 -0 0 -0 -0 0 -0 -0 0 -0 17.209 -6.798 48.046 -0 0 -0 -0 0 -0 68.666 -33.22 35.15 -103.72 -83.061 -28.613 -0 0 -0 -0 0 -0 22.809 -27.89 50.962 66.141 -66.366 38.189 -0 0 -0 -1.6273 -8.398 2.1499 -1.6273 -8.398 2.1499 -0 0 -0 -0 0 -0 -0 0 -0 -0 0 -0 -0 0 -0 -0 0 -0 -0 0 -0 -0 0 -0 -0 0 -0 -0 0 -0 -0 0 -0 -0 0 -0 
0 0.955 0 -0 0 -0 -0 0 -0 -0 0 -0 17.715 -6.9031 48.361 -0 0 -0 -0 0 -0 68.974 -32.808 34.246 -105.23 -83.044 -28.613 -0 0 -0 -0 0 -0 22.641 -27.509 51.258 67.106 -66.914 39.684 -0 0 -0 -1.9556 -8.0042 2.3152 -1.9556 -8.0042 2.3152 -0 0 -0 -0 0 -0 -0 0 -0 -0 0 -0 -0 0 -0 -0 0 -0 -0 0 -0 -0 0 -0 -0 0 -0 -0 0 -0 -0 0 -0 -0 0 -0 
0 0.955 0 -0 0 -0 -0 0 -0 -0 0 -0 17.965 -6.9587 48.911 -0 0 -0 -0 0 -0 69.109 -32.869 33.4 -107.01 -83.073 -28.447 -0 0 -0 -0 0 -0 22.578 -27.489 51.23 68.082 -67.703 40.525 -0 0 -0 -2.1731 -7.6281 2.3843 -2.1731 -7.6281 2.3843 -0 0 -0 -0 0 -0 -0 0 -0 -0 0 -0 -0 0 -0 -0 0 -0 -0 0 -0 -0 0 -0 -0 0 -0 -0 0 -0 -0 0 -0 -0 0 -0 
0 0.955 0 -0 0 -0 -0 0 -0 -0 0 -0 17.936 -6.8667 49.395 -0 0 -0 -0 0 -0 69.171 -33.318 33.182 -107.28 -82.571 -26.211 -0 0 -0 -0 0 -0 22.678 -27.632 50.966 69.333 -68.518 42.265 -0 0 -0 -2.2723 -7.5038 2.4904 -2.2723 -7.5038 2.4904 -0 0 -0 -0 0 -0 -0 0 -0 -0 0 -0 -0 0 -0 -0 0 -0 -0 0 -0 -0 0 -0 -0 0 -0 -0 0 -0 -0 0 -0 -0 0 -0 
0 0.955 0 -0 0 -0 -0 0 -0 -0 0 -0 18.087 -6.8003 49.747 -0 0 -0 -0 0 -0 68.917 -33.728 33.041 -105.8 -81.839 -22.446 -0 0 -0 -0 0 -0 22.613 -27.461 50.721 70.684 -69.454 44.54 -0 0 -0 -2.2403 -7.3086 2.6962 -2.2403 -7.3086 2.6962 -0 0 -0 -0 0 -0 -0 0 -0 -0 0 -0 -0 0 -0 -0 0 -0 -0 0 -0 -0 0 -0 -0 0 -0 -0 0 -0 -0 0 -0 -0 0 -0 
0 0.955 0 -0 0 -0 -0 0 -0 -0 0 -0 18.203 -6.678 49.84 -0 0 -0 -0 0 -0 68.671 -33.981 33.001 -103.36 -81.339 -18.523 -0 0 -0 -0 0 -0 22.618 -27.25 50.835 71.426 -70.058 46.522 -0 0 -0 -2.0598 -7.0088 3.0953 -2.0598 -7.0088 3.0953 -0 0 -0 -0 0 -0 -0 0 -0 -0 0 -0 -0 0 -0 -0 0 -0 -0 0 -0 -0 0 -0 -0 0 -0 -0 0 -0 -0 0 -0 -0 0 -0 
0 0.955 0 -0 0 -0 -0 0 -0 -0 0 -0 18.16 -6.8105 49.869 -0 0 -0 -0 0 -0 68.827 -34.052 32.74 -102.7 -81.273 -17.048 -0 0 -0 -0 0 -0 22.839 -27.165 50.832 71.534 -70.154 48.157 -0 0 -0 -1.999 -6.7695 3.5119 -1.999 -6.7695 3.5119 -0 0 -0 -0 0 -0 -0 0 -0 -0 0 -0 -0 0 -0 -0 0 -0 -0 0 -0 -0 0 -0 -0 0 -0 -0 0 -0 -0 0 -0 -0 0 -0 
0 0.955 0 -0 0 -0 -0 0 -0 -0 0 -0 18.265 -7.0827 49.844 -0 0 -0 -0 0 -0 69.097 -33.909 32.574 -102.76 -81.38 -17.035 -0 0 -0 -0 0 -0 22.907 -26.961 50.916 71.012 -70.437 48.493 -0 0 -0 -1.9347 -6.382 3.9609 -1.9347 -6.382 3.9609 -0 0 -0 -0 0 -0 -0 0 -0 -0 0 -0 -0 0 -0 -0 0 -0 -0 0 -0 -0 0 -0 -0 0 -0 -0 0 -0 -0 0 -0 -0 0 -0 
0 0.955 0 -0 0 -0 -0 0 -0 -0 0 -0 18.262 -7.2357 49.859 -0 0 -0 -0 0 -0 69.771 -33.802 32.744 -103.27 -81.557 -17.725 -0 0 -0 -0 0 -0 23.018 -26.887 50.801 70.023 -70.422 47.675 -0 0 -0 -1.7428 -5.9793 4.309 -1.7428 -5.9793 4.309 -0 0 -0 -0 0 -0 -0 0 -0 -0 0 -0 -0 0 -0 -0 0 -0 -0 0 -0 -0 0 -0 -0 0 -0 -0 0 -0 -0 0 -0 -0 0 -0 
0 0.955 0 -0 0 -0 -0 0 -0 -0 0 -0 18.339 -7.2026 49.897 -0 0 -0 -0 0 -0 70.314 -33.65 32.812 -104.89 -81.771 -19.709 -0 0 -0 -0 0 -0 22.943 -26.94 50.457 69.68 -70.035 46.453 -0 0 -0 -1.4989 -5.7391 4.5478 -1.4989 -5.7391 4.5478 -0 0 -0 -0 0 -0 -0 0 -0 -0 0 -0 -0 0 -0 -0 0 -0 -0 0 -0 -0 0 -0 -0 0 -0 -0 0 -0 -0 0 -0 -0 0 -0 
0 0.955 0 -0 0 -0 -0 0 -0 -0 0 -0 18.277 -6.9898 49.925 -0 0 -0 -0 0 -0 70.863 -33.51 32.664 -108.16 -82.203 -23.193 -0 0 -0 -0 0 -0 22.883 -27.12 50.485 70.021 -70.143 46.341 -0 0 -0 -1.3337 -5.7836 4.6264 -1.3337 -5.7836 4.6264 -0 0 -0 -0 0 -0 -0 0 -0 -0 0 -0 -0 0 -0 -0 0 -0 -0 0 -0 -0 0 -0 -0 0 -0 -0 0 -0 -0 0 -0 -0 0 -0 
0 0.955 0 -0 0 -0 -0 0 -0 -0 0 -0 18.239 -6.7926 50.031 -0 0 -0 -0 0 -0 71.234 -33.649 32.351 -110.05 -82.629 -25.239 -0 0 -0 -0 0 -0 22.893 -27.17 50.549 70.345 -70.286 46.637 -0 0 -0 -1.2675 -5.9454 4.5727 -1.2675 -5.9454 4.5727 -0 0 -0 -0 0 -0 -0 0 -0 -0 0 -0 -0 0 -0 -0 0 -0 -0 0 -0 -0 0 -0 -0 0 -0 -0 0 -0 -0 0 -0 -0 0 -0 
0 0.955 0 -0 0 -0 -0 0 -0 -0 0 -0 18.253 -6.6442 50.244 -0 0 -0 -0 0 -0 70.937 -34.139 32.287 -109.63 -82.307 -25.394 -0 0 -0 -0 0 -0 22.936 -27.151 50.315 70.584 -70.161 47.289 -0 0 -0 -0.99491 -6.2592 4.6106 -0.99491 -6.2592 4.6106 -0 0 -0 -0 0 -0 -0 0 -0 -0 0 -0 -0 0 -0 -0 0 -0 -0 0 -0 -0 0 -0 -0 0 -0 -0 0 -0 -0 0 -0 -0 0 -0 
0 0.955 0 -0 0 -0 -0 0 -0 -0 0 -0 18.388 -6.4967 50.364 -0 0 -0 -0 0 -0 70.277 -34.757 32.283 -107.53 -82.131 -23.656 -0 0 -0 -0 0 -0 22.941 -27.016 50.263 70.442 -70.109 47.914 -0 0 -0 -0.91527 -6.3478 4.6061 -0.91527 -6.3478 4.6061 -0 0 -0 -0 0 -0 -0 0 -0 -0 0 -0 -0 0 -0 -0 0 -0 -0 0 -0 -0 0 -0 -0 0 -0 -0 0 -0 -0 0 -0 -0 0 -0 
0 0.955 0 -0 0 -0 -0 0 -0 -0 0 -0 18.557 -6.5637 50.488 -0 0 -0 -0 0 -0 69.451 -35.309 32.021 -106.51 -82.132 -23.029 -0 0 -0 -0 0 -0 23 -26.707 50.192 69.955 -70.239 48.463 -0 0 -0 -0.72691 -6.2906 4.6066 -0.72691 -6.2906 4.6066 -0 0 -0 -0 0 -0 -0 0 -0 -0 0 -0 -0 0 -0 -0 0 -0 -0 0 -0 -0 0 -0 -0 0 -0 -0 0 -0 -0 0 -0 -0 0 -0 
0 0.955 0 -0 0 -0 -0 0 -0 -0 0 -0 18.467 -6.6358 50.537 -0 0 -0 -0 0 -0 69.037 -35.76 32.065 -106.68 -82.267 -23.476 -0 0 -0 -0 0 -0 23.267 -26.606 50.28 69.306 -70.429 48.515 -0 0 -0 -0.42364 -6.2334 4.5924 -0.42364 -6.2334 4.5924 -0 0 -0 -0 0 -0 -0 0 -0 -0 0 -0 -0 0 -0 -0 0 -0 -0 0 -0 -0 0 -0 -0 0 -0 -0 0 -0 -0 0 -0 -0 0 -0 
0 0.955 0 -0 0 -0 -0 0 -0 -0 0 -0 18.401 -6.6634 50.49 -0 0 -0 -0 0 -0 68.83 -35.976 32.087 -108.34 -82.531 -25.035 -0 0 -0 -0 0 -0 23.481 -26.49 50.401 68.915 -70.562 48.664 -0 0 -0 -0.13755 -6.1501 4.6377 -0.13756 -6.1501 4.6377 -0 0 -0 -0 0 -0 -0 0 -0 -0 0 -0 -0 0 -0 -0 0 -0 -0 0 -0 -0 0 -0 -0 0 -0 -0 0 -0 -0 0 -0 -0 0 -0 
0 0.955 0 -0 0 -0 -0 0 -0 -0 0 -0 18.413 -6.7348 50.421 -0 0 -0 -0 0 -0 68.726 -36.062 31.965 -109.84 -82.711 -26.352 -0 0 -0 -0 0 -0 23.648 -26.329 50.522 68.791 -70.598 49.062 -0 0 -0 0.1228 -5.9194 4.7532 0.1228 -5.9194 4.7532 -0 0 -0 -0 0 -0 -0 0 -0 -0 0 -0 -0 0 -0 -0 0 -0 -0 0 -0 -0 0 -0 -0 0 -0 -0 0 -0 -0 0 -0 -0 0 -0 
